<svg xmlns="http://www.w3.org/2000/svg" viewBox="1 95.8 746 581">
<!-- SVG created with Arrow, by QuiverAI (https://quiver.ai) -->
  <style type="text/css">.cls-0 {fill:#303030;}</style>
  <path class="cls-0" d="m541.5 430.9 10-14c12.2-2 24.5-8.9 24.5-8.9 8-17.4 12.7-39.7 12.3-48.9l-57.9-100.1c-1.8-9.1-3.9-37-3.9-37l-42.3-42.9c3.8-7.5 22.7-35.5 22.7-65.1l-49.5 37c2.1-13.2 4.6-52.4 4.6-53-15 3.5-43.1 24.8-56.5 44.6-21.4-2-30.4-2.1-41.3-2.1-40.1 0-81.6 8.3-128.1 37.4 10.3-1.1 22.6-3.2 39-3.2 8.9 0 21.8 0.7 35.2 4.3-57.5 10.7-129.4 49-163 128.3 12.7-9.9 38.3-25.4 70.4-31.3-48.4 48.4-75.4 104.2-76.9 183 40.7 7.9 100.1 33.8 157.8 86l13.1 15 126.4-43c-1.3-20.6-14.2-51.1-29.8-74.4-20.5-30.8-15.8-65.2-12.3-74.8-16.9-7.6-48-40.6-27-78.3 1-1.9 2.6-3.9 3.4-4.5-2.7 34.3 19.6 72 71.9 72 16.6 10.8 51.3 34.5 57.2 64.8l36.5 8.2"/>
  <path class="cls-0" d="m541.5 481"/>
  <path class="cls-0" d="m542 477 11.9 26.9-277.9 92.9c-38.9 12.4-111.4 38.8-140.5 55.3 20.1 7.3 51.9 15.9 88.5 17.9l135.1-52.7 206.9-76.3 3.4-1.2 5.1 25.2 162.1-117.4-194.6 29.4z"/>
  <path class="cls-0" d="m110.3 643.1c26.6-17.3 73.4-34.8 111-50.2-90.1-9.6-150.5-71.3-150.1-152.1 0.3-51.1 30.7-89.9 39.1-104.4-33.5 17-99.5 71.3-99.1 149.9 0.3 45.6 25.8 106.4 96.4 149.5l0.4 0.2 2.3 1.3z"/>
  <polygon points="454.5 242.8 473.3 270 499 275 489 257.4" fill="#fff"/>
</svg>