<svg xmlns="http://www.w3.org/2000/svg" viewBox="0 0 1000 480" font-family="-apple-system,Segoe UI,Helvetica,Arial,sans-serif"><defs><linearGradient id="gA" x1="0" y1="0" x2="0" y2="1"><stop offset="0%" stop-color="#7c9cff" stop-opacity=".42"/><stop offset="55%" stop-color="#7c9cff" stop-opacity=".12"/><stop offset="100%" stop-color="#7c9cff" stop-opacity="0"/></linearGradient><linearGradient id="gS" x1="0" y1="0" x2="1" y2="0"><stop offset="0%" stop-color="#56e0c2"/><stop offset="100%" stop-color="#7c9cff"/></linearGradient></defs><rect width="1000" height="480" rx="16" fill="#0a0c12"/><text x="78" y="40" fill="#e9edf6" font-size="21" font-weight="700">Card implementation progress</text><text x="78" y="64" fill="#8b93a7" font-size="13">7,534 distinct cards · 2026-01-18 → 2026-07-19 · 150 active days · busiest day +755</text><rect x="604" y="30" width="18" height="3" rx="1.5" fill="#7c9cff"/><text x="628" y="36" fill="#8b93a7" font-size="12">Total implemented</text><rect x="764" y="27" width="9" height="9" rx="2" fill="#56e0c2" opacity=".7"/><text x="780" y="36" fill="#8b93a7" font-size="12">Added per day</text><line x1="78" y1="440.0" x2="922" y2="440.0" stroke="#1a1f2c"/><text x="68" y="444.0" fill="#9fb2ff" font-size="11" text-anchor="end">0</text><line x1="78" y1="396.5" x2="922" y2="396.5" stroke="#1a1f2c"/><text x="68" y="400.5" fill="#9fb2ff" font-size="11" text-anchor="end">1,000</text><line x1="78" y1="353.0" x2="922" y2="353.0" stroke="#1a1f2c"/><text x="68" y="357.0" fill="#9fb2ff" font-size="11" text-anchor="end">2,000</text><line x1="78" y1="309.5" x2="922" y2="309.5" stroke="#1a1f2c"/><text x="68" y="313.5" fill="#9fb2ff" font-size="11" text-anchor="end">3,000</text><line x1="78" y1="266.0" x2="922" y2="266.0" stroke="#1a1f2c"/><text x="68" y="270.0" fill="#9fb2ff" font-size="11" text-anchor="end">4,000</text><line x1="78" y1="222.5" x2="922" y2="222.5" stroke="#1a1f2c"/><text x="68" y="226.5" fill="#9fb2ff" font-size="11" text-anchor="end">5,000</text><line x1="78" y1="179.0" x2="922" y2="179.0" stroke="#1a1f2c"/><text x="68" y="183.0" fill="#9fb2ff" font-size="11" text-anchor="end">6,000</text><line x1="78" y1="135.5" x2="922" y2="135.5" stroke="#1a1f2c"/><text x="68" y="139.5" fill="#9fb2ff" font-size="11" text-anchor="end">7,000</text><line x1="78" y1="92.0" x2="922" y2="92.0" stroke="#1a1f2c"/><text x="68" y="96.0" fill="#9fb2ff" font-size="11" text-anchor="end">8,000</text><text x="932" y="444.0" fill="#56e0c2" font-size="11">0</text><text x="932" y="391.9" fill="#56e0c2" font-size="11">266</text><text x="932" y="339.9" fill="#56e0c2" font-size="11">532</text><text x="932" y="287.8" fill="#56e0c2" font-size="11">798</text><text x="78.0" y="466" fill="#5a6276" font-size="11" text-anchor="middle">Jan</text><text x="142.9" y="466" fill="#5a6276" font-size="11" text-anchor="middle">Feb</text><text x="272.8" y="466" fill="#5a6276" font-size="11" text-anchor="middle">Mar</text><text x="416.5" y="466" fill="#5a6276" font-size="11" text-anchor="middle">Apr</text><text x="555.6" y="466" fill="#5a6276" font-size="11" text-anchor="middle">May</text><text x="699.4" y="466" fill="#5a6276" font-size="11" text-anchor="middle">Jun</text><text x="838.5" y="466" fill="#5a6276" font-size="11" text-anchor="middle">Jul</text><rect x="104.6" y="401.8" width="2.5" height="38.2" fill="#56e0c2" opacity=".7"/><rect x="141.7" y="433.9" width="2.5" height="6.1" fill="#56e0c2" opacity=".7"/><rect x="164.8" y="424.9" width="2.5" height="15.1" fill="#56e0c2" opacity=".7"/><rect x="169.5" y="431.4" width="2.5" height="8.6" fill="#56e0c2" opacity=".7"/><rect x="174.1" y="433.1" width="2.5" height="6.9" fill="#56e0c2" opacity=".7"/><rect x="178.8" y="437.3" width="2.5" height="2.7" fill="#56e0c2" opacity=".7"/><rect x="183.4" y="436.5" width="2.5" height="3.5" fill="#56e0c2" opacity=".7"/><rect x="188.0" y="435.9" width="2.5" height="4.1" fill="#56e0c2" opacity=".7"/><rect x="192.7" y="439.8" width="2.5" height="0.2" fill="#56e0c2" opacity=".7"/><rect x="197.3" y="433.5" width="2.5" height="6.5" fill="#56e0c2" opacity=".7"/><rect x="201.9" y="438.4" width="2.5" height="1.6" fill="#56e0c2" opacity=".7"/><rect x="206.6" y="433.9" width="2.5" height="6.1" fill="#56e0c2" opacity=".7"/><rect x="211.2" y="436.7" width="2.5" height="3.3" fill="#56e0c2" opacity=".7"/><rect x="220.5" y="439.8" width="2.5" height="0.2" fill="#56e0c2" opacity=".7"/><rect x="225.1" y="435.3" width="2.5" height="4.7" fill="#56e0c2" opacity=".7"/><rect x="229.8" y="435.7" width="2.5" height="4.3" fill="#56e0c2" opacity=".7"/><rect x="234.4" y="437.8" width="2.5" height="2.2" fill="#56e0c2" opacity=".7"/><rect x="239.0" y="439.0" width="2.5" height="1.0" fill="#56e0c2" opacity=".7"/><rect x="243.7" y="439.8" width="2.5" height="0.2" fill="#56e0c2" opacity=".7"/><rect x="248.3" y="435.9" width="2.5" height="4.1" fill="#56e0c2" opacity=".7"/><rect x="253.0" y="435.3" width="2.5" height="4.7" fill="#56e0c2" opacity=".7"/><rect x="257.6" y="434.7" width="2.5" height="5.3" fill="#56e0c2" opacity=".7"/><rect x="262.2" y="432.0" width="2.5" height="8.0" fill="#56e0c2" opacity=".7"/><rect x="266.9" y="432.8" width="2.5" height="7.2" fill="#56e0c2" opacity=".7"/><rect x="271.5" y="422.0" width="2.5" height="18.0" fill="#56e0c2" opacity=".7"/><rect x="276.1" y="432.8" width="2.5" height="7.2" fill="#56e0c2" opacity=".7"/><rect x="280.8" y="435.3" width="2.5" height="4.7" fill="#56e0c2" opacity=".7"/><rect x="285.4" y="433.7" width="2.5" height="6.3" fill="#56e0c2" opacity=".7"/><rect x="290.1" y="437.8" width="2.5" height="2.2" fill="#56e0c2" opacity=".7"/><rect x="294.7" y="433.9" width="2.5" height="6.1" fill="#56e0c2" opacity=".7"/><rect x="299.3" y="434.7" width="2.5" height="5.3" fill="#56e0c2" opacity=".7"/><rect x="304.0" y="433.5" width="2.5" height="6.5" fill="#56e0c2" opacity=".7"/><rect x="308.6" y="436.3" width="2.5" height="3.7" fill="#56e0c2" opacity=".7"/><rect x="313.2" y="438.2" width="2.5" height="1.8" fill="#56e0c2" opacity=".7"/><rect x="317.9" y="439.2" width="2.5" height="0.8" fill="#56e0c2" opacity=".7"/><rect x="322.5" y="418.7" width="2.5" height="21.3" fill="#56e0c2" opacity=".7"/><rect x="327.1" y="432.8" width="2.5" height="7.2" fill="#56e0c2" opacity=".7"/><rect x="331.8" y="435.5" width="2.5" height="4.5" fill="#56e0c2" opacity=".7"/><rect x="336.4" y="435.3" width="2.5" height="4.7" fill="#56e0c2" opacity=".7"/><rect x="341.1" y="438.8" width="2.5" height="1.2" fill="#56e0c2" opacity=".7"/><rect x="345.7" y="437.1" width="2.5" height="2.9" fill="#56e0c2" opacity=".7"/><rect x="350.3" y="434.1" width="2.5" height="5.9" fill="#56e0c2" opacity=".7"/><rect x="355.0" y="439.8" width="2.5" height="0.2" fill="#56e0c2" opacity=".7"/><rect x="359.6" y="436.7" width="2.5" height="3.3" fill="#56e0c2" opacity=".7"/><rect x="368.9" y="438.4" width="2.5" height="1.6" fill="#56e0c2" opacity=".7"/><rect x="373.5" y="439.4" width="2.5" height="0.6" fill="#56e0c2" opacity=".7"/><rect x="382.8" y="438.8" width="2.5" height="1.2" fill="#56e0c2" opacity=".7"/><rect x="387.4" y="437.7" width="2.5" height="2.3" fill="#56e0c2" opacity=".7"/><rect x="392.1" y="432.4" width="2.5" height="7.6" fill="#56e0c2" opacity=".7"/><rect x="396.7" y="432.0" width="2.5" height="8.0" fill="#56e0c2" opacity=".7"/><rect x="401.3" y="434.7" width="2.5" height="5.3" fill="#56e0c2" opacity=".7"/><rect x="406.0" y="433.3" width="2.5" height="6.7" fill="#56e0c2" opacity=".7"/><rect x="410.6" y="438.8" width="2.5" height="1.2" fill="#56e0c2" opacity=".7"/><rect x="419.9" y="435.5" width="2.5" height="4.5" fill="#56e0c2" opacity=".7"/><rect x="424.5" y="431.2" width="2.5" height="8.8" fill="#56e0c2" opacity=".7"/><rect x="429.2" y="439.4" width="2.5" height="0.6" fill="#56e0c2" opacity=".7"/><rect x="461.6" y="439.8" width="2.5" height="0.2" fill="#56e0c2" opacity=".7"/><rect x="466.3" y="436.5" width="2.5" height="3.5" fill="#56e0c2" opacity=".7"/><rect x="470.9" y="439.2" width="2.5" height="0.8" fill="#56e0c2" opacity=".7"/><rect x="475.5" y="439.8" width="2.5" height="0.2" fill="#56e0c2" opacity=".7"/><rect x="480.2" y="438.2" width="2.5" height="1.8" fill="#56e0c2" opacity=".7"/><rect x="484.8" y="437.5" width="2.5" height="2.5" fill="#56e0c2" opacity=".7"/><rect x="489.5" y="438.2" width="2.5" height="1.8" fill="#56e0c2" opacity=".7"/><rect x="494.1" y="438.0" width="2.5" height="2.0" fill="#56e0c2" opacity=".7"/><rect x="498.7" y="435.1" width="2.5" height="4.9" fill="#56e0c2" opacity=".7"/><rect x="503.4" y="438.0" width="2.5" height="2.0" fill="#56e0c2" opacity=".7"/><rect x="508.0" y="439.6" width="2.5" height="0.4" fill="#56e0c2" opacity=".7"/><rect x="512.6" y="438.0" width="2.5" height="2.0" fill="#56e0c2" opacity=".7"/><rect x="517.3" y="439.4" width="2.5" height="0.6" fill="#56e0c2" opacity=".7"/><rect x="521.9" y="436.7" width="2.5" height="3.3" fill="#56e0c2" opacity=".7"/><rect x="531.2" y="431.2" width="2.5" height="8.8" fill="#56e0c2" opacity=".7"/><rect x="535.8" y="436.7" width="2.5" height="3.3" fill="#56e0c2" opacity=".7"/><rect x="540.5" y="439.4" width="2.5" height="0.6" fill="#56e0c2" opacity=".7"/><rect x="545.1" y="433.7" width="2.5" height="6.3" fill="#56e0c2" opacity=".7"/><rect x="549.7" y="437.5" width="2.5" height="2.5" fill="#56e0c2" opacity=".7"/><rect x="554.4" y="434.3" width="2.5" height="5.7" fill="#56e0c2" opacity=".7"/><rect x="563.7" y="432.6" width="2.5" height="7.4" fill="#56e0c2" opacity=".7"/><rect x="568.3" y="432.2" width="2.5" height="7.8" fill="#56e0c2" opacity=".7"/><rect x="572.9" y="431.4" width="2.5" height="8.6" fill="#56e0c2" opacity=".7"/><rect x="577.6" y="435.7" width="2.5" height="4.3" fill="#56e0c2" opacity=".7"/><rect x="582.2" y="433.7" width="2.5" height="6.3" fill="#56e0c2" opacity=".7"/><rect x="586.8" y="434.3" width="2.5" height="5.7" fill="#56e0c2" opacity=".7"/><rect x="591.5" y="434.5" width="2.5" height="5.5" fill="#56e0c2" opacity=".7"/><rect x="596.1" y="432.8" width="2.5" height="7.2" fill="#56e0c2" opacity=".7"/><rect x="600.8" y="433.0" width="2.5" height="7.0" fill="#56e0c2" opacity=".7"/><rect x="605.4" y="436.1" width="2.5" height="3.9" fill="#56e0c2" opacity=".7"/><rect x="610.0" y="438.2" width="2.5" height="1.8" fill="#56e0c2" opacity=".7"/><rect x="614.7" y="434.7" width="2.5" height="5.3" fill="#56e0c2" opacity=".7"/><rect x="619.3" y="431.6" width="2.5" height="8.4" fill="#56e0c2" opacity=".7"/><rect x="623.9" y="436.9" width="2.5" height="3.1" fill="#56e0c2" opacity=".7"/><rect x="628.6" y="435.3" width="2.5" height="4.7" fill="#56e0c2" opacity=".7"/><rect x="633.2" y="436.5" width="2.5" height="3.5" fill="#56e0c2" opacity=".7"/><rect x="637.9" y="439.8" width="2.5" height="0.2" fill="#56e0c2" opacity=".7"/><rect x="642.5" y="439.4" width="2.5" height="0.6" fill="#56e0c2" opacity=".7"/><rect x="647.1" y="439.0" width="2.5" height="1.0" fill="#56e0c2" opacity=".7"/><rect x="651.8" y="438.4" width="2.5" height="1.6" fill="#56e0c2" opacity=".7"/><rect x="656.4" y="438.6" width="2.5" height="1.4" fill="#56e0c2" opacity=".7"/><rect x="661.0" y="439.6" width="2.5" height="0.4" fill="#56e0c2" opacity=".7"/><rect x="665.7" y="439.0" width="2.5" height="1.0" fill="#56e0c2" opacity=".7"/><rect x="670.3" y="426.9" width="2.5" height="13.1" fill="#56e0c2" opacity=".7"/><rect x="675.0" y="409.3" width="2.5" height="30.7" fill="#56e0c2" opacity=".7"/><rect x="679.6" y="431.6" width="2.5" height="8.4" fill="#56e0c2" opacity=".7"/><rect x="684.2" y="427.5" width="2.5" height="12.5" fill="#56e0c2" opacity=".7"/><rect x="688.9" y="389.9" width="2.5" height="50.1" fill="#56e0c2" opacity=".7"/><rect x="693.5" y="417.9" width="2.5" height="22.1" fill="#56e0c2" opacity=".7"/><rect x="698.1" y="420.8" width="2.5" height="19.2" fill="#56e0c2" opacity=".7"/><rect x="702.8" y="424.1" width="2.5" height="15.9" fill="#56e0c2" opacity=".7"/><rect x="707.4" y="428.5" width="2.5" height="11.5" fill="#56e0c2" opacity=".7"/><rect x="712.1" y="431.4" width="2.5" height="8.6" fill="#56e0c2" opacity=".7"/><rect x="716.7" y="439.6" width="2.5" height="0.4" fill="#56e0c2" opacity=".7"/><rect x="721.3" y="393.6" width="2.5" height="46.4" fill="#56e0c2" opacity=".7"/><rect x="726.0" y="359.7" width="2.5" height="80.3" fill="#56e0c2" opacity=".7"/><rect x="730.6" y="402.0" width="2.5" height="38.0" fill="#56e0c2" opacity=".7"/><rect x="735.2" y="436.1" width="2.5" height="3.9" fill="#56e0c2" opacity=".7"/><rect x="739.9" y="436.1" width="2.5" height="3.9" fill="#56e0c2" opacity=".7"/><rect x="744.5" y="438.2" width="2.5" height="1.8" fill="#56e0c2" opacity=".7"/><rect x="749.1" y="292.2" width="2.5" height="147.8" fill="#56e0c2" opacity=".7"/><rect x="753.8" y="411.8" width="2.5" height="28.2" fill="#56e0c2" opacity=".7"/><rect x="758.4" y="426.1" width="2.5" height="13.9" fill="#56e0c2" opacity=".7"/><rect x="763.1" y="395.0" width="2.5" height="45.0" fill="#56e0c2" opacity=".7"/><rect x="767.7" y="427.1" width="2.5" height="12.9" fill="#56e0c2" opacity=".7"/><rect x="772.3" y="432.6" width="2.5" height="7.4" fill="#56e0c2" opacity=".7"/><rect x="777.0" y="397.9" width="2.5" height="42.1" fill="#56e0c2" opacity=".7"/><rect x="781.6" y="402.4" width="2.5" height="37.6" fill="#56e0c2" opacity=".7"/><rect x="786.2" y="438.4" width="2.5" height="1.6" fill="#56e0c2" opacity=".7"/><rect x="790.9" y="425.7" width="2.5" height="14.3" fill="#56e0c2" opacity=".7"/><rect x="795.5" y="438.0" width="2.5" height="2.0" fill="#56e0c2" opacity=".7"/><rect x="804.8" y="424.9" width="2.5" height="15.1" fill="#56e0c2" opacity=".7"/><rect x="809.4" y="433.3" width="2.5" height="6.7" fill="#56e0c2" opacity=".7"/><rect x="814.1" y="412.4" width="2.5" height="27.6" fill="#56e0c2" opacity=".7"/><rect x="818.7" y="426.5" width="2.5" height="13.5" fill="#56e0c2" opacity=".7"/><rect x="823.3" y="399.3" width="2.5" height="40.7" fill="#56e0c2" opacity=".7"/><rect x="828.0" y="397.3" width="2.5" height="42.7" fill="#56e0c2" opacity=".7"/><rect x="832.6" y="423.0" width="2.5" height="17.0" fill="#56e0c2" opacity=".7"/><rect x="837.3" y="410.1" width="2.5" height="29.9" fill="#56e0c2" opacity=".7"/><rect x="841.9" y="434.7" width="2.5" height="5.3" fill="#56e0c2" opacity=".7"/><rect x="846.5" y="430.0" width="2.5" height="10.0" fill="#56e0c2" opacity=".7"/><rect x="851.2" y="435.5" width="2.5" height="4.5" fill="#56e0c2" opacity=".7"/><rect x="855.8" y="435.1" width="2.5" height="4.9" fill="#56e0c2" opacity=".7"/><rect x="860.4" y="434.1" width="2.5" height="5.9" fill="#56e0c2" opacity=".7"/><rect x="865.1" y="424.7" width="2.5" height="15.3" fill="#56e0c2" opacity=".7"/><rect x="869.7" y="433.0" width="2.5" height="7.0" fill="#56e0c2" opacity=".7"/><rect x="874.4" y="439.8" width="2.5" height="0.2" fill="#56e0c2" opacity=".7"/><rect x="888.3" y="421.6" width="2.5" height="18.4" fill="#56e0c2" opacity=".7"/><rect x="892.9" y="436.7" width="2.5" height="3.3" fill="#56e0c2" opacity=".7"/><rect x="897.5" y="435.1" width="2.5" height="4.9" fill="#56e0c2" opacity=".7"/><rect x="902.2" y="437.5" width="2.5" height="2.5" fill="#56e0c2" opacity=".7"/><rect x="906.8" y="439.8" width="2.5" height="0.2" fill="#56e0c2" opacity=".7"/><rect x="916.1" y="438.0" width="2.5" height="2.0" fill="#56e0c2" opacity=".7"/><rect x="920.7" y="418.9" width="2.5" height="21.1" fill="#56e0c2" opacity=".7"/><path d="M 78.0 440.0 L 78.0 440.0 L 82.6 440.0 L 87.3 440.0 L 91.9 440.0 L 96.5 440.0 L 101.2 440.0 L 105.8 431.5 L 110.5 431.5 L 115.1 431.5 L 119.7 431.5 L 124.4 431.5 L 129.0 431.5 L 133.6 431.5 L 138.3 431.5 L 142.9 430.2 L 147.6 430.2 L 152.2 430.2 L 156.8 430.2 L 161.5 430.2 L 166.1 426.8 L 170.7 424.9 L 175.4 423.4 L 180.0 422.8 L 184.7 422.0 L 189.3 421.1 L 193.9 421.0 L 198.6 419.6 L 203.2 419.3 L 207.8 417.9 L 212.5 417.2 L 217.1 417.2 L 221.8 417.1 L 226.4 416.1 L 231.0 415.1 L 235.7 414.6 L 240.3 414.4 L 244.9 414.4 L 249.6 413.5 L 254.2 412.4 L 258.9 411.2 L 263.5 409.5 L 268.1 407.9 L 272.8 403.9 L 277.4 402.2 L 282.0 401.2 L 286.7 399.8 L 291.3 399.3 L 296.0 398.0 L 300.6 396.8 L 305.2 395.4 L 309.9 394.5 L 314.5 394.2 L 319.1 394.0 L 323.8 389.2 L 328.4 387.6 L 333.1 386.6 L 337.7 385.6 L 342.3 385.3 L 347.0 384.7 L 351.6 383.4 L 356.2 383.3 L 360.9 382.6 L 365.5 382.6 L 370.2 382.2 L 374.8 382.1 L 379.4 382.1 L 384.1 381.8 L 388.7 381.3 L 393.3 379.6 L 398.0 377.8 L 402.6 376.7 L 407.3 375.2 L 411.9 374.9 L 416.5 374.9 L 421.2 373.9 L 425.8 372.0 L 430.4 371.8 L 435.1 371.8 L 439.7 371.8 L 444.4 371.8 L 449.0 371.8 L 453.6 371.8 L 458.3 371.8 L 462.9 371.8 L 467.5 371.0 L 472.2 370.8 L 476.8 370.8 L 481.5 370.4 L 486.1 369.8 L 490.7 369.4 L 495.4 369.0 L 500.0 367.9 L 504.6 367.5 L 509.3 367.4 L 513.9 367.0 L 518.5 366.8 L 523.2 366.1 L 527.8 366.1 L 532.5 364.1 L 537.1 363.4 L 541.7 363.3 L 546.4 361.9 L 551.0 361.3 L 555.6 360.0 L 560.3 360.0 L 564.9 358.4 L 569.6 356.7 L 574.2 354.7 L 578.8 353.8 L 583.5 352.4 L 588.1 351.1 L 592.7 349.9 L 597.4 348.3 L 602.0 346.7 L 606.7 345.9 L 611.3 345.5 L 615.9 344.3 L 620.6 342.4 L 625.2 341.7 L 629.8 340.7 L 634.5 339.9 L 639.1 339.9 L 643.8 339.7 L 648.4 339.5 L 653.0 339.2 L 657.7 338.9 L 662.3 338.8 L 666.9 338.6 L 671.6 335.6 L 676.2 328.8 L 680.9 326.9 L 685.5 324.2 L 690.1 313.0 L 694.8 308.1 L 699.4 303.8 L 704.0 300.3 L 708.7 297.8 L 713.3 295.8 L 718.0 295.8 L 722.6 285.4 L 727.2 267.6 L 731.9 259.2 L 736.5 258.3 L 741.1 257.4 L 745.8 257.0 L 750.4 224.2 L 755.1 217.9 L 759.7 214.8 L 764.3 204.8 L 769.0 202.0 L 773.6 200.3 L 778.2 191.0 L 782.9 182.6 L 787.5 182.3 L 792.2 179.1 L 796.8 178.7 L 801.4 178.7 L 806.1 175.3 L 810.7 173.8 L 815.3 167.7 L 820.0 164.7 L 824.6 155.6 L 829.3 146.2 L 833.9 142.4 L 838.5 135.7 L 843.2 134.5 L 847.8 132.3 L 852.4 131.3 L 857.1 130.2 L 861.7 128.9 L 866.4 125.5 L 871.0 124.0 L 875.6 123.9 L 880.3 123.9 L 884.9 123.9 L 889.5 119.8 L 894.2 119.1 L 898.8 118.0 L 903.5 117.4 L 908.1 117.4 L 912.7 117.4 L 917.4 117.0 L 922.0 112.3 L 922.0 440.0 Z" fill="url(#gA)"/><path d="M 78.0 440.0 L 82.6 440.0 L 87.3 440.0 L 91.9 440.0 L 96.5 440.0 L 101.2 440.0 L 105.8 431.5 L 110.5 431.5 L 115.1 431.5 L 119.7 431.5 L 124.4 431.5 L 129.0 431.5 L 133.6 431.5 L 138.3 431.5 L 142.9 430.2 L 147.6 430.2 L 152.2 430.2 L 156.8 430.2 L 161.5 430.2 L 166.1 426.8 L 170.7 424.9 L 175.4 423.4 L 180.0 422.8 L 184.7 422.0 L 189.3 421.1 L 193.9 421.0 L 198.6 419.6 L 203.2 419.3 L 207.8 417.9 L 212.5 417.2 L 217.1 417.2 L 221.8 417.1 L 226.4 416.1 L 231.0 415.1 L 235.7 414.6 L 240.3 414.4 L 244.9 414.4 L 249.6 413.5 L 254.2 412.4 L 258.9 411.2 L 263.5 409.5 L 268.1 407.9 L 272.8 403.9 L 277.4 402.2 L 282.0 401.2 L 286.7 399.8 L 291.3 399.3 L 296.0 398.0 L 300.6 396.8 L 305.2 395.4 L 309.9 394.5 L 314.5 394.2 L 319.1 394.0 L 323.8 389.2 L 328.4 387.6 L 333.1 386.6 L 337.7 385.6 L 342.3 385.3 L 347.0 384.7 L 351.6 383.4 L 356.2 383.3 L 360.9 382.6 L 365.5 382.6 L 370.2 382.2 L 374.8 382.1 L 379.4 382.1 L 384.1 381.8 L 388.7 381.3 L 393.3 379.6 L 398.0 377.8 L 402.6 376.7 L 407.3 375.2 L 411.9 374.9 L 416.5 374.9 L 421.2 373.9 L 425.8 372.0 L 430.4 371.8 L 435.1 371.8 L 439.7 371.8 L 444.4 371.8 L 449.0 371.8 L 453.6 371.8 L 458.3 371.8 L 462.9 371.8 L 467.5 371.0 L 472.2 370.8 L 476.8 370.8 L 481.5 370.4 L 486.1 369.8 L 490.7 369.4 L 495.4 369.0 L 500.0 367.9 L 504.6 367.5 L 509.3 367.4 L 513.9 367.0 L 518.5 366.8 L 523.2 366.1 L 527.8 366.1 L 532.5 364.1 L 537.1 363.4 L 541.7 363.3 L 546.4 361.9 L 551.0 361.3 L 555.6 360.0 L 560.3 360.0 L 564.9 358.4 L 569.6 356.7 L 574.2 354.7 L 578.8 353.8 L 583.5 352.4 L 588.1 351.1 L 592.7 349.9 L 597.4 348.3 L 602.0 346.7 L 606.7 345.9 L 611.3 345.5 L 615.9 344.3 L 620.6 342.4 L 625.2 341.7 L 629.8 340.7 L 634.5 339.9 L 639.1 339.9 L 643.8 339.7 L 648.4 339.5 L 653.0 339.2 L 657.7 338.9 L 662.3 338.8 L 666.9 338.6 L 671.6 335.6 L 676.2 328.8 L 680.9 326.9 L 685.5 324.2 L 690.1 313.0 L 694.8 308.1 L 699.4 303.8 L 704.0 300.3 L 708.7 297.8 L 713.3 295.8 L 718.0 295.8 L 722.6 285.4 L 727.2 267.6 L 731.9 259.2 L 736.5 258.3 L 741.1 257.4 L 745.8 257.0 L 750.4 224.2 L 755.1 217.9 L 759.7 214.8 L 764.3 204.8 L 769.0 202.0 L 773.6 200.3 L 778.2 191.0 L 782.9 182.6 L 787.5 182.3 L 792.2 179.1 L 796.8 178.7 L 801.4 178.7 L 806.1 175.3 L 810.7 173.8 L 815.3 167.7 L 820.0 164.7 L 824.6 155.6 L 829.3 146.2 L 833.9 142.4 L 838.5 135.7 L 843.2 134.5 L 847.8 132.3 L 852.4 131.3 L 857.1 130.2 L 861.7 128.9 L 866.4 125.5 L 871.0 124.0 L 875.6 123.9 L 880.3 123.9 L 884.9 123.9 L 889.5 119.8 L 894.2 119.1 L 898.8 118.0 L 903.5 117.4 L 908.1 117.4 L 912.7 117.4 L 917.4 117.0 L 922.0 112.3" fill="none" stroke="url(#gS)" stroke-width="2.5" stroke-linejoin="round"/></svg>
