<svg xmlns="http://www.w3.org/2000/svg" viewBox="0 0 1000 480" font-family="-apple-system,Segoe UI,Helvetica,Arial,sans-serif"><defs><linearGradient id="gA" x1="0" y1="0" x2="0" y2="1"><stop offset="0%" stop-color="#7c9cff" stop-opacity=".42"/><stop offset="55%" stop-color="#7c9cff" stop-opacity=".12"/><stop offset="100%" stop-color="#7c9cff" stop-opacity="0"/></linearGradient><linearGradient id="gS" x1="0" y1="0" x2="1" y2="0"><stop offset="0%" stop-color="#56e0c2"/><stop offset="100%" stop-color="#7c9cff"/></linearGradient></defs><rect width="1000" height="480" rx="16" fill="#0a0c12"/><text x="78" y="40" fill="#e9edf6" font-size="21" font-weight="700">Card implementation progress</text><text x="78" y="64" fill="#8b93a7" font-size="13">5,529 distinct cards · 2026-01-18 → 2026-06-18 · 123 active days · busiest day +755</text><rect x="604" y="30" width="18" height="3" rx="1.5" fill="#7c9cff"/><text x="628" y="36" fill="#8b93a7" font-size="12">Total implemented</text><rect x="764" y="27" width="9" height="9" rx="2" fill="#56e0c2" opacity=".7"/><text x="780" y="36" fill="#8b93a7" font-size="12">Added per day</text><line x1="78" y1="440.0" x2="922" y2="440.0" stroke="#1a1f2c"/><text x="68" y="444.0" fill="#9fb2ff" font-size="11" text-anchor="end">0</text><line x1="78" y1="382.0" x2="922" y2="382.0" stroke="#1a1f2c"/><text x="68" y="386.0" fill="#9fb2ff" font-size="11" text-anchor="end">1,000</text><line x1="78" y1="324.0" x2="922" y2="324.0" stroke="#1a1f2c"/><text x="68" y="328.0" fill="#9fb2ff" font-size="11" text-anchor="end">2,000</text><line x1="78" y1="266.0" x2="922" y2="266.0" stroke="#1a1f2c"/><text x="68" y="270.0" fill="#9fb2ff" font-size="11" text-anchor="end">3,000</text><line x1="78" y1="208.0" x2="922" y2="208.0" stroke="#1a1f2c"/><text x="68" y="212.0" fill="#9fb2ff" font-size="11" text-anchor="end">4,000</text><line x1="78" y1="150.0" x2="922" y2="150.0" stroke="#1a1f2c"/><text x="68" y="154.0" fill="#9fb2ff" font-size="11" text-anchor="end">5,000</text><line x1="78" y1="92.0" x2="922" y2="92.0" stroke="#1a1f2c"/><text x="68" y="96.0" fill="#9fb2ff" font-size="11" text-anchor="end">6,000</text><text x="932" y="444.0" fill="#56e0c2" font-size="11">0</text><text x="932" y="391.9" fill="#56e0c2" font-size="11">266</text><text x="932" y="339.9" fill="#56e0c2" font-size="11">532</text><text x="932" y="287.8" fill="#56e0c2" font-size="11">798</text><text x="78.0" y="466" fill="#5a6276" font-size="11" text-anchor="middle">Jan</text><text x="156.3" y="466" fill="#5a6276" font-size="11" text-anchor="middle">Feb</text><text x="312.8" y="466" fill="#5a6276" font-size="11" text-anchor="middle">Mar</text><text x="486.0" y="466" fill="#5a6276" font-size="11" text-anchor="middle">Apr</text><text x="653.7" y="466" fill="#5a6276" font-size="11" text-anchor="middle">May</text><text x="827.0" y="466" fill="#5a6276" font-size="11" text-anchor="middle">Jun</text><rect x="110.0" y="401.8" width="3.1" height="38.2" fill="#56e0c2" opacity=".7"/><rect x="154.7" y="433.9" width="3.1" height="6.1" fill="#56e0c2" opacity=".7"/><rect x="182.7" y="424.9" width="3.1" height="15.1" fill="#56e0c2" opacity=".7"/><rect x="188.3" y="431.4" width="3.1" height="8.6" fill="#56e0c2" opacity=".7"/><rect x="193.9" y="433.1" width="3.1" height="6.9" fill="#56e0c2" opacity=".7"/><rect x="199.4" y="437.3" width="3.1" height="2.7" fill="#56e0c2" opacity=".7"/><rect x="205.0" y="436.5" width="3.1" height="3.5" fill="#56e0c2" opacity=".7"/><rect x="210.6" y="435.9" width="3.1" height="4.1" fill="#56e0c2" opacity=".7"/><rect x="216.2" y="439.8" width="3.1" height="0.2" fill="#56e0c2" opacity=".7"/><rect x="221.8" y="433.5" width="3.1" height="6.5" fill="#56e0c2" opacity=".7"/><rect x="227.4" y="438.4" width="3.1" height="1.6" fill="#56e0c2" opacity=".7"/><rect x="233.0" y="433.9" width="3.1" height="6.1" fill="#56e0c2" opacity=".7"/><rect x="238.6" y="436.7" width="3.1" height="3.3" fill="#56e0c2" opacity=".7"/><rect x="249.7" y="439.8" width="3.1" height="0.2" fill="#56e0c2" opacity=".7"/><rect x="255.3" y="435.3" width="3.1" height="4.7" fill="#56e0c2" opacity=".7"/><rect x="260.9" y="435.7" width="3.1" height="4.3" fill="#56e0c2" opacity=".7"/><rect x="266.5" y="437.8" width="3.1" height="2.2" fill="#56e0c2" opacity=".7"/><rect x="272.1" y="439.0" width="3.1" height="1.0" fill="#56e0c2" opacity=".7"/><rect x="277.7" y="439.8" width="3.1" height="0.2" fill="#56e0c2" opacity=".7"/><rect x="283.3" y="435.9" width="3.1" height="4.1" fill="#56e0c2" opacity=".7"/><rect x="288.9" y="435.3" width="3.1" height="4.7" fill="#56e0c2" opacity=".7"/><rect x="294.5" y="434.7" width="3.1" height="5.3" fill="#56e0c2" opacity=".7"/><rect x="300.0" y="432.0" width="3.1" height="8.0" fill="#56e0c2" opacity=".7"/><rect x="305.6" y="432.8" width="3.1" height="7.2" fill="#56e0c2" opacity=".7"/><rect x="311.2" y="422.0" width="3.1" height="18.0" fill="#56e0c2" opacity=".7"/><rect x="316.8" y="432.8" width="3.1" height="7.2" fill="#56e0c2" opacity=".7"/><rect x="322.4" y="435.3" width="3.1" height="4.7" fill="#56e0c2" opacity=".7"/><rect x="328.0" y="433.7" width="3.1" height="6.3" fill="#56e0c2" opacity=".7"/><rect x="333.6" y="437.8" width="3.1" height="2.2" fill="#56e0c2" opacity=".7"/><rect x="339.2" y="433.9" width="3.1" height="6.1" fill="#56e0c2" opacity=".7"/><rect x="344.8" y="434.7" width="3.1" height="5.3" fill="#56e0c2" opacity=".7"/><rect x="350.4" y="433.5" width="3.1" height="6.5" fill="#56e0c2" opacity=".7"/><rect x="355.9" y="436.3" width="3.1" height="3.7" fill="#56e0c2" opacity=".7"/><rect x="361.5" y="438.2" width="3.1" height="1.8" fill="#56e0c2" opacity=".7"/><rect x="367.1" y="439.2" width="3.1" height="0.8" fill="#56e0c2" opacity=".7"/><rect x="372.7" y="418.7" width="3.1" height="21.3" fill="#56e0c2" opacity=".7"/><rect x="378.3" y="432.8" width="3.1" height="7.2" fill="#56e0c2" opacity=".7"/><rect x="383.9" y="435.5" width="3.1" height="4.5" fill="#56e0c2" opacity=".7"/><rect x="389.5" y="435.3" width="3.1" height="4.7" fill="#56e0c2" opacity=".7"/><rect x="395.1" y="438.8" width="3.1" height="1.2" fill="#56e0c2" opacity=".7"/><rect x="400.7" y="437.1" width="3.1" height="2.9" fill="#56e0c2" opacity=".7"/><rect x="406.2" y="434.1" width="3.1" height="5.9" fill="#56e0c2" opacity=".7"/><rect x="411.8" y="439.8" width="3.1" height="0.2" fill="#56e0c2" opacity=".7"/><rect x="417.4" y="436.7" width="3.1" height="3.3" fill="#56e0c2" opacity=".7"/><rect x="428.6" y="438.4" width="3.1" height="1.6" fill="#56e0c2" opacity=".7"/><rect x="434.2" y="439.4" width="3.1" height="0.6" fill="#56e0c2" opacity=".7"/><rect x="445.4" y="438.8" width="3.1" height="1.2" fill="#56e0c2" opacity=".7"/><rect x="451.0" y="437.7" width="3.1" height="2.3" fill="#56e0c2" opacity=".7"/><rect x="456.6" y="432.4" width="3.1" height="7.6" fill="#56e0c2" opacity=".7"/><rect x="462.1" y="432.0" width="3.1" height="8.0" fill="#56e0c2" opacity=".7"/><rect x="467.7" y="434.7" width="3.1" height="5.3" fill="#56e0c2" opacity=".7"/><rect x="473.3" y="433.3" width="3.1" height="6.7" fill="#56e0c2" opacity=".7"/><rect x="478.9" y="438.8" width="3.1" height="1.2" fill="#56e0c2" opacity=".7"/><rect x="490.1" y="435.5" width="3.1" height="4.5" fill="#56e0c2" opacity=".7"/><rect x="495.7" y="431.2" width="3.1" height="8.8" fill="#56e0c2" opacity=".7"/><rect x="501.3" y="439.4" width="3.1" height="0.6" fill="#56e0c2" opacity=".7"/><rect x="540.4" y="439.8" width="3.1" height="0.2" fill="#56e0c2" opacity=".7"/><rect x="546.0" y="436.5" width="3.1" height="3.5" fill="#56e0c2" opacity=".7"/><rect x="551.6" y="439.2" width="3.1" height="0.8" fill="#56e0c2" opacity=".7"/><rect x="557.2" y="439.8" width="3.1" height="0.2" fill="#56e0c2" opacity=".7"/><rect x="562.8" y="438.2" width="3.1" height="1.8" fill="#56e0c2" opacity=".7"/><rect x="568.3" y="437.5" width="3.1" height="2.5" fill="#56e0c2" opacity=".7"/><rect x="573.9" y="438.2" width="3.1" height="1.8" fill="#56e0c2" opacity=".7"/><rect x="579.5" y="438.0" width="3.1" height="2.0" fill="#56e0c2" opacity=".7"/><rect x="585.1" y="435.1" width="3.1" height="4.9" fill="#56e0c2" opacity=".7"/><rect x="590.7" y="438.0" width="3.1" height="2.0" fill="#56e0c2" opacity=".7"/><rect x="596.3" y="439.6" width="3.1" height="0.4" fill="#56e0c2" opacity=".7"/><rect x="601.9" y="438.0" width="3.1" height="2.0" fill="#56e0c2" opacity=".7"/><rect x="607.5" y="439.4" width="3.1" height="0.6" fill="#56e0c2" opacity=".7"/><rect x="613.1" y="436.7" width="3.1" height="3.3" fill="#56e0c2" opacity=".7"/><rect x="624.2" y="431.2" width="3.1" height="8.8" fill="#56e0c2" opacity=".7"/><rect x="629.8" y="436.7" width="3.1" height="3.3" fill="#56e0c2" opacity=".7"/><rect x="635.4" y="439.4" width="3.1" height="0.6" fill="#56e0c2" opacity=".7"/><rect x="641.0" y="433.7" width="3.1" height="6.3" fill="#56e0c2" opacity=".7"/><rect x="646.6" y="437.5" width="3.1" height="2.5" fill="#56e0c2" opacity=".7"/><rect x="652.2" y="434.3" width="3.1" height="5.7" fill="#56e0c2" opacity=".7"/><rect x="663.4" y="432.6" width="3.1" height="7.4" fill="#56e0c2" opacity=".7"/><rect x="668.9" y="432.2" width="3.1" height="7.8" fill="#56e0c2" opacity=".7"/><rect x="674.5" y="431.4" width="3.1" height="8.6" fill="#56e0c2" opacity=".7"/><rect x="680.1" y="435.7" width="3.1" height="4.3" fill="#56e0c2" opacity=".7"/><rect x="685.7" y="433.7" width="3.1" height="6.3" fill="#56e0c2" opacity=".7"/><rect x="691.3" y="434.3" width="3.1" height="5.7" fill="#56e0c2" opacity=".7"/><rect x="696.9" y="434.5" width="3.1" height="5.5" fill="#56e0c2" opacity=".7"/><rect x="702.5" y="432.8" width="3.1" height="7.2" fill="#56e0c2" opacity=".7"/><rect x="708.1" y="433.0" width="3.1" height="7.0" fill="#56e0c2" opacity=".7"/><rect x="713.7" y="436.1" width="3.1" height="3.9" fill="#56e0c2" opacity=".7"/><rect x="719.3" y="438.2" width="3.1" height="1.8" fill="#56e0c2" opacity=".7"/><rect x="724.8" y="434.7" width="3.1" height="5.3" fill="#56e0c2" opacity=".7"/><rect x="730.4" y="431.6" width="3.1" height="8.4" fill="#56e0c2" opacity=".7"/><rect x="736.0" y="436.9" width="3.1" height="3.1" fill="#56e0c2" opacity=".7"/><rect x="741.6" y="435.3" width="3.1" height="4.7" fill="#56e0c2" opacity=".7"/><rect x="747.2" y="436.5" width="3.1" height="3.5" fill="#56e0c2" opacity=".7"/><rect x="752.8" y="439.8" width="3.1" height="0.2" fill="#56e0c2" opacity=".7"/><rect x="758.4" y="439.4" width="3.1" height="0.6" fill="#56e0c2" opacity=".7"/><rect x="764.0" y="439.0" width="3.1" height="1.0" fill="#56e0c2" opacity=".7"/><rect x="769.6" y="438.4" width="3.1" height="1.6" fill="#56e0c2" opacity=".7"/><rect x="775.1" y="438.6" width="3.1" height="1.4" fill="#56e0c2" opacity=".7"/><rect x="780.7" y="439.6" width="3.1" height="0.4" fill="#56e0c2" opacity=".7"/><rect x="786.3" y="439.0" width="3.1" height="1.0" fill="#56e0c2" opacity=".7"/><rect x="791.9" y="426.9" width="3.1" height="13.1" fill="#56e0c2" opacity=".7"/><rect x="797.5" y="409.3" width="3.1" height="30.7" fill="#56e0c2" opacity=".7"/><rect x="803.1" y="431.6" width="3.1" height="8.4" fill="#56e0c2" opacity=".7"/><rect x="808.7" y="427.5" width="3.1" height="12.5" fill="#56e0c2" opacity=".7"/><rect x="814.3" y="389.9" width="3.1" height="50.1" fill="#56e0c2" opacity=".7"/><rect x="819.9" y="417.9" width="3.1" height="22.1" fill="#56e0c2" opacity=".7"/><rect x="825.5" y="420.8" width="3.1" height="19.2" fill="#56e0c2" opacity=".7"/><rect x="831.0" y="424.1" width="3.1" height="15.9" fill="#56e0c2" opacity=".7"/><rect x="836.6" y="428.5" width="3.1" height="11.5" fill="#56e0c2" opacity=".7"/><rect x="842.2" y="431.4" width="3.1" height="8.6" fill="#56e0c2" opacity=".7"/><rect x="847.8" y="439.6" width="3.1" height="0.4" fill="#56e0c2" opacity=".7"/><rect x="853.4" y="393.6" width="3.1" height="46.4" fill="#56e0c2" opacity=".7"/><rect x="859.0" y="359.7" width="3.1" height="80.3" fill="#56e0c2" opacity=".7"/><rect x="864.6" y="402.0" width="3.1" height="38.0" fill="#56e0c2" opacity=".7"/><rect x="870.2" y="436.1" width="3.1" height="3.9" fill="#56e0c2" opacity=".7"/><rect x="875.8" y="436.1" width="3.1" height="3.9" fill="#56e0c2" opacity=".7"/><rect x="881.3" y="438.2" width="3.1" height="1.8" fill="#56e0c2" opacity=".7"/><rect x="886.9" y="292.2" width="3.1" height="147.8" fill="#56e0c2" opacity=".7"/><rect x="892.5" y="411.8" width="3.1" height="28.2" fill="#56e0c2" opacity=".7"/><rect x="898.1" y="426.1" width="3.1" height="13.9" fill="#56e0c2" opacity=".7"/><rect x="903.7" y="395.0" width="3.1" height="45.0" fill="#56e0c2" opacity=".7"/><rect x="909.3" y="427.1" width="3.1" height="12.9" fill="#56e0c2" opacity=".7"/><rect x="914.9" y="432.6" width="3.1" height="7.4" fill="#56e0c2" opacity=".7"/><rect x="920.5" y="436.3" width="3.1" height="3.7" fill="#56e0c2" opacity=".7"/><path d="M 78.0 440.0 L 78.0 440.0 L 83.6 440.0 L 89.2 440.0 L 94.8 440.0 L 100.4 440.0 L 105.9 440.0 L 111.5 428.7 L 117.1 428.7 L 122.7 428.7 L 128.3 428.7 L 133.9 428.7 L 139.5 428.7 L 145.1 428.7 L 150.7 428.7 L 156.3 426.9 L 161.8 426.9 L 167.4 426.9 L 173.0 426.9 L 178.6 426.9 L 184.2 422.4 L 189.8 419.9 L 195.4 417.8 L 201.0 417.0 L 206.6 416.0 L 212.1 414.8 L 217.7 414.7 L 223.3 412.8 L 228.9 412.3 L 234.5 410.5 L 240.1 409.6 L 245.7 409.6 L 251.3 409.5 L 256.9 408.1 L 262.5 406.8 L 268.0 406.2 L 273.6 405.9 L 279.2 405.8 L 284.8 404.6 L 290.4 403.2 L 296.0 401.7 L 301.6 399.3 L 307.2 397.1 L 312.8 391.8 L 318.3 389.7 L 323.9 388.3 L 329.5 386.4 L 335.1 385.8 L 340.7 384.0 L 346.3 382.4 L 351.9 380.5 L 357.5 379.4 L 363.1 378.9 L 368.6 378.6 L 374.2 372.3 L 379.8 370.2 L 385.4 368.8 L 391.0 367.4 L 396.6 367.1 L 402.2 366.2 L 407.8 364.5 L 413.4 364.4 L 419.0 363.4 L 424.5 363.4 L 430.1 363.0 L 435.7 362.8 L 441.3 362.8 L 446.9 362.5 L 452.5 361.8 L 458.1 359.5 L 463.7 357.1 L 469.3 355.6 L 474.8 353.6 L 480.4 353.2 L 486.0 353.2 L 491.6 351.9 L 497.2 349.3 L 502.8 349.1 L 508.4 349.1 L 514.0 349.1 L 519.6 349.1 L 525.2 349.1 L 530.7 349.1 L 536.3 349.1 L 541.9 349.1 L 547.5 348.0 L 553.1 347.8 L 558.7 347.7 L 564.3 347.2 L 569.9 346.4 L 575.5 345.9 L 581.0 345.3 L 586.6 343.9 L 592.2 343.3 L 597.8 343.2 L 603.4 342.6 L 609.0 342.4 L 614.6 341.5 L 620.2 341.5 L 625.8 338.8 L 631.4 337.9 L 636.9 337.7 L 642.5 335.8 L 648.1 335.1 L 653.7 333.4 L 659.3 333.4 L 664.9 331.2 L 670.5 328.9 L 676.1 326.3 L 681.7 325.0 L 687.2 323.2 L 692.8 321.5 L 698.4 319.9 L 704.0 317.7 L 709.6 315.6 L 715.2 314.5 L 720.8 314.0 L 726.4 312.4 L 732.0 309.9 L 737.5 309.0 L 743.1 307.6 L 748.7 306.5 L 754.3 306.5 L 759.9 306.3 L 765.5 306.0 L 771.1 305.6 L 776.7 305.1 L 782.3 305.0 L 787.9 304.7 L 793.4 300.9 L 799.0 291.8 L 804.6 289.3 L 810.2 285.5 L 815.8 270.7 L 821.4 264.1 L 827.0 258.5 L 832.6 253.8 L 838.2 250.3 L 843.7 247.8 L 849.3 247.7 L 854.9 233.9 L 860.5 210.1 L 866.1 198.9 L 871.7 197.7 L 877.3 196.6 L 882.9 196.1 L 888.5 152.3 L 894.1 143.9 L 899.6 139.8 L 905.2 126.5 L 910.8 122.6 L 916.4 120.4 L 922.0 119.3 L 922.0 440.0 Z" fill="url(#gA)"/><path d="M 78.0 440.0 L 83.6 440.0 L 89.2 440.0 L 94.8 440.0 L 100.4 440.0 L 105.9 440.0 L 111.5 428.7 L 117.1 428.7 L 122.7 428.7 L 128.3 428.7 L 133.9 428.7 L 139.5 428.7 L 145.1 428.7 L 150.7 428.7 L 156.3 426.9 L 161.8 426.9 L 167.4 426.9 L 173.0 426.9 L 178.6 426.9 L 184.2 422.4 L 189.8 419.9 L 195.4 417.8 L 201.0 417.0 L 206.6 416.0 L 212.1 414.8 L 217.7 414.7 L 223.3 412.8 L 228.9 412.3 L 234.5 410.5 L 240.1 409.6 L 245.7 409.6 L 251.3 409.5 L 256.9 408.1 L 262.5 406.8 L 268.0 406.2 L 273.6 405.9 L 279.2 405.8 L 284.8 404.6 L 290.4 403.2 L 296.0 401.7 L 301.6 399.3 L 307.2 397.1 L 312.8 391.8 L 318.3 389.7 L 323.9 388.3 L 329.5 386.4 L 335.1 385.8 L 340.7 384.0 L 346.3 382.4 L 351.9 380.5 L 357.5 379.4 L 363.1 378.9 L 368.6 378.6 L 374.2 372.3 L 379.8 370.2 L 385.4 368.8 L 391.0 367.4 L 396.6 367.1 L 402.2 366.2 L 407.8 364.5 L 413.4 364.4 L 419.0 363.4 L 424.5 363.4 L 430.1 363.0 L 435.7 362.8 L 441.3 362.8 L 446.9 362.5 L 452.5 361.8 L 458.1 359.5 L 463.7 357.1 L 469.3 355.6 L 474.8 353.6 L 480.4 353.2 L 486.0 353.2 L 491.6 351.9 L 497.2 349.3 L 502.8 349.1 L 508.4 349.1 L 514.0 349.1 L 519.6 349.1 L 525.2 349.1 L 530.7 349.1 L 536.3 349.1 L 541.9 349.1 L 547.5 348.0 L 553.1 347.8 L 558.7 347.7 L 564.3 347.2 L 569.9 346.4 L 575.5 345.9 L 581.0 345.3 L 586.6 343.9 L 592.2 343.3 L 597.8 343.2 L 603.4 342.6 L 609.0 342.4 L 614.6 341.5 L 620.2 341.5 L 625.8 338.8 L 631.4 337.9 L 636.9 337.7 L 642.5 335.8 L 648.1 335.1 L 653.7 333.4 L 659.3 333.4 L 664.9 331.2 L 670.5 328.9 L 676.1 326.3 L 681.7 325.0 L 687.2 323.2 L 692.8 321.5 L 698.4 319.9 L 704.0 317.7 L 709.6 315.6 L 715.2 314.5 L 720.8 314.0 L 726.4 312.4 L 732.0 309.9 L 737.5 309.0 L 743.1 307.6 L 748.7 306.5 L 754.3 306.5 L 759.9 306.3 L 765.5 306.0 L 771.1 305.6 L 776.7 305.1 L 782.3 305.0 L 787.9 304.7 L 793.4 300.9 L 799.0 291.8 L 804.6 289.3 L 810.2 285.5 L 815.8 270.7 L 821.4 264.1 L 827.0 258.5 L 832.6 253.8 L 838.2 250.3 L 843.7 247.8 L 849.3 247.7 L 854.9 233.9 L 860.5 210.1 L 866.1 198.9 L 871.7 197.7 L 877.3 196.6 L 882.9 196.1 L 888.5 152.3 L 894.1 143.9 L 899.6 139.8 L 905.2 126.5 L 910.8 122.6 L 916.4 120.4 L 922.0 119.3" fill="none" stroke="url(#gS)" stroke-width="2.5" stroke-linejoin="round"/></svg>
